<svg width="189" height="46" viewBox="0 0 189 46" fill="none" xmlns="http://www.w3.org/2000/svg">
<path d="M22.9989 26.1229L19.2428 31.3493C19.287 32.6784 18.8326 33.9777 17.9646 35.0045C17.0965 36.0313 15.8742 36.7154 14.5259 36.9289C13.1776 37.1425 11.7955 36.8709 10.6379 36.165C9.48023 35.459 8.62616 34.367 8.2352 33.0928C7.84425 31.8186 7.94315 30.4495 8.51343 29.2411C9.08372 28.0327 10.0864 27.0677 11.3341 26.5265C12.5819 25.9852 13.9894 25.9046 15.2937 26.2997C16.598 26.6949 17.71 27.5387 18.4219 28.6737L21.6246 24.2137L11.9218 10.7242C11.7506 10.4861 11.6836 10.1915 11.7355 9.90535C11.7874 9.61916 11.9539 9.36474 12.1985 9.19809C12.443 9.03143 12.7456 8.96617 13.0396 9.01668C13.3336 9.06718 13.5949 9.22931 13.7661 9.46739L27.5781 28.6715C28.29 27.5365 29.402 26.6927 30.7063 26.2975C32.0106 25.9024 33.4181 25.983 34.6659 26.5243C35.9136 27.0656 36.9163 28.0305 37.4866 29.2389C38.0569 30.4473 38.1558 31.8164 37.7648 33.0906C37.3738 34.3648 36.5198 35.4569 35.3621 36.1628C34.2045 36.8688 32.8224 37.1403 31.4741 36.9267C30.1258 36.7132 28.9035 36.0291 28.0354 35.0023C27.1674 33.9755 26.713 32.6762 26.7572 31.3471L23.0011 26.1229H22.9989ZM24.9107 19.6486L32.2339 9.46739C32.4051 9.22931 32.6664 9.06718 32.9604 9.01668C33.2544 8.96617 33.557 9.03143 33.8015 9.19809C34.0461 9.36474 34.2126 9.61916 34.2645 9.90535C34.3164 10.1915 34.2494 10.4861 34.0782 10.7242L26.2849 21.5578L24.9129 19.6486H24.9107ZM11.6857 34.2175C12.0482 34.4711 12.4589 34.6522 12.8939 34.7502C13.3289 34.8481 13.7795 34.8611 14.2196 34.7883C14.6598 34.7154 15.0807 34.5583 15.458 34.3259C15.8354 34.0936 16.1615 33.7906 16.4177 33.4346C16.6738 33.0787 16.8548 32.6767 16.9502 32.2521C17.0456 31.8275 17.0535 31.3887 16.9734 30.9612C16.8933 30.5336 16.7268 30.1257 16.4835 29.7613C16.2403 29.3968 15.9252 29.0829 15.5564 28.8379C14.823 28.3622 13.9275 28.1847 13.0613 28.3435C12.1952 28.5022 11.4273 28.9847 10.9219 29.6875C10.4164 30.3904 10.2136 31.2579 10.3568 32.1045C10.4999 32.951 10.9777 33.7095 11.6879 34.2175H11.6857ZM34.3121 34.2175C34.6862 33.9748 35.0067 33.6618 35.2548 33.2968C35.5029 32.9319 35.6736 32.5223 35.7568 32.0922C35.84 31.6621 35.834 31.2202 35.7393 30.7924C35.6446 30.3646 35.4629 29.9595 35.2051 29.601C34.9473 29.2424 34.6185 28.9377 34.238 28.7046C33.8574 28.4716 33.4329 28.3149 32.9893 28.2438C32.5457 28.1727 32.092 28.1887 31.6548 28.2907C31.2176 28.3927 30.8058 28.5788 30.4436 28.8379C29.7333 29.346 29.2556 30.1044 29.1124 30.951C28.9692 31.7975 29.1721 32.665 29.6775 33.3679C30.1829 34.0708 30.9509 34.5532 31.817 34.712C32.6831 34.8707 33.5787 34.6933 34.3121 34.2175Z" fill="black"/>
<circle cx="23" cy="23" r="21.5" stroke="black" stroke-width="3"/>
<path d="M66.124 15.28C67.0947 15.28 67.84 15.384 68.36 15.592C68.88 15.8 69.3307 16.0253 69.712 16.268C69.92 16.3893 70.0847 16.4847 70.206 16.554C70.3447 16.606 70.4747 16.632 70.596 16.632C70.7693 16.632 70.8907 16.5367 70.96 16.346C71.0467 16.1553 71.116 15.8693 71.168 15.488H71.766C71.7487 15.8173 71.7227 16.1987 71.688 16.632C71.6707 17.0653 71.6533 17.646 71.636 18.374C71.636 19.0847 71.636 20.0293 71.636 21.208H71.038C70.986 20.324 70.7867 19.4747 70.44 18.66C70.1107 17.8453 69.634 17.178 69.01 16.658C68.4033 16.1207 67.6233 15.852 66.67 15.852C65.8207 15.852 65.11 16.1033 64.538 16.606C63.9833 17.1087 63.706 17.7847 63.706 18.634C63.706 19.362 63.888 19.9773 64.252 20.48C64.616 20.9653 65.1273 21.442 65.786 21.91C66.462 22.3607 67.2593 22.8807 68.178 23.47C69.0273 24.0247 69.79 24.5793 70.466 25.134C71.142 25.6713 71.6707 26.2693 72.052 26.928C72.4507 27.5867 72.65 28.3927 72.65 29.346C72.65 30.4727 72.3727 31.4087 71.818 32.154C71.2633 32.8993 70.518 33.454 69.582 33.818C68.646 34.182 67.6233 34.364 66.514 34.364C65.4913 34.364 64.6767 34.26 64.07 34.052C63.4807 33.844 62.9693 33.6273 62.536 33.402C62.1547 33.1593 61.86 33.038 61.652 33.038C61.4787 33.038 61.3487 33.1333 61.262 33.324C61.1927 33.5147 61.132 33.8007 61.08 34.182H60.482C60.5167 33.7833 60.534 33.3153 60.534 32.778C60.5513 32.2407 60.56 31.5473 60.56 30.698C60.5773 29.8313 60.586 28.7393 60.586 27.422H61.184C61.2533 28.5313 61.444 29.5713 61.756 30.542C62.0853 31.4953 62.5793 32.2667 63.238 32.856C63.914 33.4453 64.8067 33.74 65.916 33.74C66.5227 33.74 67.0687 33.636 67.554 33.428C68.0567 33.2027 68.4553 32.8647 68.75 32.414C69.0447 31.946 69.192 31.3567 69.192 30.646C69.192 29.9353 69.0273 29.3113 68.698 28.774C68.3687 28.2367 67.9093 27.734 67.32 27.266C66.7307 26.798 66.0373 26.3213 65.24 25.836C64.4253 25.316 63.6627 24.7873 62.952 24.25C62.2413 23.7127 61.6693 23.106 61.236 22.43C60.82 21.7367 60.612 20.9047 60.612 19.934C60.612 18.8593 60.872 17.984 61.392 17.308C61.912 16.6147 62.588 16.1033 63.42 15.774C64.2693 15.4447 65.1707 15.28 66.124 15.28ZM76.0127 34.182C75.2674 34.182 74.6347 34.0433 74.1147 33.766C73.5947 33.4713 73.2047 33.0813 72.9447 32.596C72.6847 32.0933 72.5547 31.5387 72.5547 30.932C72.5547 30.1867 72.7281 29.58 73.0747 29.112C73.4214 28.6267 73.8634 28.2453 74.4007 27.968C74.9554 27.6733 75.5361 27.4307 76.1427 27.24C76.7494 27.032 77.3214 26.8413 77.8587 26.668C78.3961 26.4773 78.8381 26.2607 79.1847 26.018C79.5314 25.7753 79.7047 25.4547 79.7047 25.056V23.158C79.7047 22.6033 79.6181 22.1527 79.4447 21.806C79.2887 21.442 79.0461 21.1733 78.7167 21C78.4047 20.8093 78.0061 20.714 77.5207 20.714C77.1567 20.714 76.7754 20.766 76.3767 20.87C75.9781 20.974 75.6487 21.1733 75.3887 21.468C75.8394 21.5893 76.1861 21.8147 76.4287 22.144C76.6887 22.4733 76.8187 22.872 76.8187 23.34C76.8187 23.8773 76.6367 24.302 76.2727 24.614C75.9261 24.9087 75.4841 25.056 74.9467 25.056C74.3747 25.056 73.9414 24.874 73.6467 24.51C73.3521 24.146 73.2047 23.7213 73.2047 23.236C73.2047 22.7507 73.3261 22.352 73.5687 22.04C73.8114 21.7107 74.1494 21.416 74.5827 21.156C75.0161 20.8613 75.5707 20.6273 76.2467 20.454C76.9227 20.2807 77.6594 20.194 78.4567 20.194C79.2194 20.194 79.8954 20.2807 80.4847 20.454C81.0741 20.61 81.5767 20.896 81.9927 21.312C82.4087 21.7107 82.6774 22.2047 82.7987 22.794C82.9201 23.3833 82.9807 24.1027 82.9807 24.952V32.076C82.9807 32.5093 83.0327 32.8213 83.1367 33.012C83.2407 33.1853 83.4054 33.272 83.6307 33.272C83.8041 33.272 83.9687 33.2287 84.1247 33.142C84.2807 33.0553 84.4541 32.934 84.6447 32.778L84.9307 33.22C84.5494 33.5147 84.1507 33.7487 83.7347 33.922C83.3187 34.0953 82.8161 34.182 82.2267 34.182C81.6201 34.182 81.1347 34.0953 80.7707 33.922C80.4241 33.7487 80.1641 33.4973 79.9907 33.168C79.8347 32.8387 79.7481 32.4487 79.7307 31.998C79.3147 32.6913 78.8034 33.2287 78.1967 33.61C77.5901 33.9913 76.8621 34.182 76.0127 34.182ZM77.5727 32.726C77.9887 32.726 78.3701 32.6133 78.7167 32.388C79.0807 32.1627 79.4101 31.8247 79.7047 31.374V26.122C79.5314 26.382 79.2801 26.616 78.9507 26.824C78.6387 27.032 78.3007 27.24 77.9367 27.448C77.5727 27.656 77.2261 27.8987 76.8967 28.176C76.5847 28.436 76.3161 28.7653 76.0907 29.164C75.8827 29.5453 75.7787 30.0393 75.7787 30.646C75.7787 31.322 75.9434 31.842 76.2727 32.206C76.6021 32.5527 77.0354 32.726 77.5727 32.726ZM88.486 13.642V31.582C88.486 32.31 88.616 32.804 88.876 33.064C89.1534 33.324 89.6127 33.454 90.254 33.454V34C89.942 33.9827 89.4654 33.9653 88.824 33.948C88.2 33.9133 87.5587 33.896 86.9 33.896C86.2587 33.896 85.6 33.9133 84.924 33.948C84.2654 33.9653 83.7714 33.9827 83.442 34V33.454C84.0834 33.454 84.534 33.324 84.794 33.064C85.0714 32.804 85.21 32.31 85.21 31.582V16.762C85.21 15.982 85.0887 15.41 84.846 15.046C84.6034 14.6647 84.1354 14.474 83.442 14.474V13.928C83.9967 13.98 84.534 14.006 85.054 14.006C85.7127 14.006 86.328 13.98 86.9 13.928C87.472 13.8587 88.0007 13.7633 88.486 13.642ZM95.7392 20.194C96.9352 20.194 97.9926 20.4367 98.9112 20.922C99.8472 21.39 100.584 22.144 101.121 23.184C101.676 24.224 101.953 25.5933 101.953 27.292C101.953 28.9907 101.676 30.36 101.121 31.4C100.584 32.44 99.8472 33.194 98.9112 33.662C97.9926 34.13 96.9352 34.364 95.7392 34.364C94.5432 34.364 93.4772 34.13 92.5412 33.662C91.6052 33.194 90.8686 32.44 90.3312 31.4C89.7939 30.36 89.5252 28.9907 89.5252 27.292C89.5252 25.5933 89.7939 24.224 90.3312 23.184C90.8686 22.144 91.6052 21.39 92.5412 20.922C93.4772 20.4367 94.5432 20.194 95.7392 20.194ZM95.7392 20.714C94.9246 20.714 94.2572 21.234 93.7372 22.274C93.2346 23.2967 92.9832 24.9693 92.9832 27.292C92.9832 29.6147 93.2346 31.2873 93.7372 32.31C94.2572 33.3327 94.9246 33.844 95.7392 33.844C96.5366 33.844 97.1952 33.3327 97.7152 32.31C98.2352 31.2873 98.4952 29.6147 98.4952 27.292C98.4952 24.9693 98.2352 23.2967 97.7152 22.274C97.1952 21.234 96.5366 20.714 95.7392 20.714ZM110.913 20.194C111.641 20.194 112.221 20.2893 112.655 20.48C113.105 20.6707 113.469 20.9133 113.747 21.208C114.059 21.5373 114.275 21.962 114.397 22.482C114.535 23.002 114.605 23.704 114.605 24.588V31.582C114.605 32.31 114.735 32.804 114.995 33.064C115.272 33.324 115.731 33.454 116.373 33.454V34C116.061 33.9827 115.575 33.9653 114.917 33.948C114.275 33.9133 113.651 33.896 113.045 33.896C112.403 33.896 111.779 33.9133 111.173 33.948C110.566 33.9653 110.115 33.9827 109.821 34V33.454C110.375 33.454 110.765 33.324 110.991 33.064C111.216 32.804 111.329 32.31 111.329 31.582V23.704C111.329 23.236 111.285 22.82 111.199 22.456C111.112 22.0747 110.939 21.78 110.679 21.572C110.419 21.3467 110.046 21.234 109.561 21.234C108.989 21.234 108.477 21.39 108.027 21.702C107.593 22.014 107.247 22.4473 106.987 23.002C106.744 23.5393 106.623 24.146 106.623 24.822V31.582C106.623 32.31 106.735 32.804 106.961 33.064C107.186 33.324 107.576 33.454 108.131 33.454V34C107.836 33.9827 107.394 33.9653 106.805 33.948C106.215 33.9133 105.617 33.896 105.011 33.896C104.369 33.896 103.719 33.9133 103.061 33.948C102.402 33.9653 101.908 33.9827 101.579 34V33.454C102.22 33.454 102.671 33.324 102.931 33.064C103.208 32.804 103.347 32.31 103.347 31.582V23.392C103.347 22.612 103.217 22.04 102.957 21.676C102.714 21.2947 102.255 21.104 101.579 21.104V20.558C102.133 20.61 102.671 20.636 103.191 20.636C103.832 20.636 104.439 20.61 105.011 20.558C105.6 20.4887 106.137 20.3933 106.623 20.272V22.872C107.056 21.884 107.654 21.1907 108.417 20.792C109.179 20.3933 110.011 20.194 110.913 20.194ZM115.577 15.592C116.01 15.6093 116.565 15.6267 117.241 15.644C117.917 15.6613 118.593 15.67 119.269 15.67C120.118 15.67 120.924 15.6613 121.687 15.644C122.45 15.6267 122.987 15.618 123.299 15.618C125.622 15.618 127.346 16.0947 128.473 17.048C129.617 18.0013 130.189 19.232 130.189 20.74C130.189 21.364 130.076 22.0227 129.851 22.716C129.626 23.392 129.236 24.0247 128.681 24.614C128.126 25.186 127.364 25.654 126.393 26.018C125.44 26.382 124.218 26.564 122.727 26.564H120.127V26.044H122.467C123.559 26.044 124.391 25.81 124.963 25.342C125.552 24.874 125.942 24.2587 126.133 23.496C126.341 22.7333 126.445 21.91 126.445 21.026C126.445 19.3793 126.176 18.1487 125.639 17.334C125.102 16.5193 124.174 16.112 122.857 16.112C122.146 16.112 121.678 16.2593 121.453 16.554C121.245 16.8487 121.141 17.4467 121.141 18.348V31.14C121.141 31.7987 121.21 32.2927 121.349 32.622C121.488 32.9513 121.756 33.168 122.155 33.272C122.554 33.376 123.126 33.4367 123.871 33.454V34C123.368 33.9653 122.718 33.948 121.921 33.948C121.124 33.9307 120.3 33.922 119.451 33.922C118.723 33.922 118.021 33.9307 117.345 33.948C116.669 33.948 116.08 33.9653 115.577 34V33.48C116.149 33.4453 116.574 33.376 116.851 33.272C117.146 33.168 117.336 32.96 117.423 32.648C117.527 32.336 117.579 31.868 117.579 31.244V18.348C117.579 17.7067 117.527 17.2387 117.423 16.944C117.336 16.632 117.146 16.424 116.851 16.32C116.574 16.1987 116.149 16.1293 115.577 16.112V15.592ZM138.043 20.194C138.58 20.194 139.022 20.3067 139.369 20.532C139.733 20.7573 140.002 21.0433 140.175 21.39C140.348 21.7367 140.435 22.1007 140.435 22.482C140.435 23.054 140.262 23.5307 139.915 23.912C139.586 24.2933 139.144 24.484 138.589 24.484C138.069 24.484 137.644 24.3453 137.315 24.068C136.986 23.7907 136.821 23.4093 136.821 22.924C136.821 22.4907 136.925 22.1267 137.133 21.832C137.358 21.5373 137.61 21.3033 137.887 21.13C137.696 21.026 137.48 20.9913 137.237 21.026C136.821 21.0607 136.44 21.208 136.093 21.468C135.746 21.728 135.452 22.0487 135.209 22.43C134.966 22.8113 134.776 23.2187 134.637 23.652C134.516 24.0853 134.455 24.5013 134.455 24.9V31.322C134.455 32.1713 134.672 32.7433 135.105 33.038C135.538 33.3153 136.171 33.454 137.003 33.454V34C136.604 33.9827 136.024 33.9653 135.261 33.948C134.516 33.9133 133.736 33.896 132.921 33.896C132.245 33.896 131.569 33.9133 130.893 33.948C130.234 33.9653 129.74 33.9827 129.411 34V33.454C130.052 33.454 130.503 33.324 130.763 33.064C131.04 32.804 131.179 32.31 131.179 31.582V23.392C131.179 22.612 131.049 22.04 130.789 21.676C130.546 21.2947 130.087 21.104 129.411 21.104V20.558C129.966 20.61 130.503 20.636 131.023 20.636C131.664 20.636 132.271 20.61 132.843 20.558C133.432 20.4887 133.97 20.3933 134.455 20.272V22.976C134.663 22.4907 134.932 22.04 135.261 21.624C135.608 21.208 136.015 20.87 136.483 20.61C136.968 20.3327 137.488 20.194 138.043 20.194ZM142.878 34.182C142.133 34.182 141.5 34.0433 140.98 33.766C140.46 33.4713 140.07 33.0813 139.81 32.596C139.55 32.0933 139.42 31.5387 139.42 30.932C139.42 30.1867 139.594 29.58 139.94 29.112C140.287 28.6267 140.729 28.2453 141.266 27.968C141.821 27.6733 142.402 27.4307 143.008 27.24C143.615 27.032 144.187 26.8413 144.724 26.668C145.262 26.4773 145.704 26.2607 146.05 26.018C146.397 25.7753 146.57 25.4547 146.57 25.056V23.158C146.57 22.6033 146.484 22.1527 146.31 21.806C146.154 21.442 145.912 21.1733 145.582 21C145.27 20.8093 144.872 20.714 144.386 20.714C144.022 20.714 143.641 20.766 143.242 20.87C142.844 20.974 142.514 21.1733 142.254 21.468C142.705 21.5893 143.052 21.8147 143.294 22.144C143.554 22.4733 143.684 22.872 143.684 23.34C143.684 23.8773 143.502 24.302 143.138 24.614C142.792 24.9087 142.35 25.056 141.812 25.056C141.24 25.056 140.807 24.874 140.512 24.51C140.218 24.146 140.07 23.7213 140.07 23.236C140.07 22.7507 140.192 22.352 140.434 22.04C140.677 21.7107 141.015 21.416 141.448 21.156C141.882 20.8613 142.436 20.6273 143.112 20.454C143.788 20.2807 144.525 20.194 145.322 20.194C146.085 20.194 146.761 20.2807 147.35 20.454C147.94 20.61 148.442 20.896 148.858 21.312C149.274 21.7107 149.543 22.2047 149.664 22.794C149.786 23.3833 149.846 24.1027 149.846 24.952V32.076C149.846 32.5093 149.898 32.8213 150.002 33.012C150.106 33.1853 150.271 33.272 150.496 33.272C150.67 33.272 150.834 33.2287 150.99 33.142C151.146 33.0553 151.32 32.934 151.51 32.778L151.796 33.22C151.415 33.5147 151.016 33.7487 150.6 33.922C150.184 34.0953 149.682 34.182 149.092 34.182C148.486 34.182 148 34.0953 147.636 33.922C147.29 33.7487 147.03 33.4973 146.856 33.168C146.7 32.8387 146.614 32.4487 146.596 31.998C146.18 32.6913 145.669 33.2287 145.062 33.61C144.456 33.9913 143.728 34.182 142.878 34.182ZM144.438 32.726C144.854 32.726 145.236 32.6133 145.582 32.388C145.946 32.1627 146.276 31.8247 146.57 31.374V26.122C146.397 26.382 146.146 26.616 145.816 26.824C145.504 27.032 145.166 27.24 144.802 27.448C144.438 27.656 144.092 27.8987 143.762 28.176C143.45 28.436 143.182 28.7653 142.956 29.164C142.748 29.5453 142.644 30.0393 142.644 30.646C142.644 31.322 142.809 31.842 143.138 32.206C143.468 32.5527 143.901 32.726 144.438 32.726ZM163.022 20.272V31.192C163.022 31.972 163.152 32.5527 163.412 32.934C163.672 33.298 164.131 33.48 164.79 33.48V34.026C164.252 33.974 163.715 33.948 163.178 33.948C162.536 33.948 161.921 33.974 161.332 34.026C160.76 34.078 160.231 34.1733 159.746 34.312V31.712C159.312 32.6653 158.714 33.35 157.952 33.766C157.206 34.1647 156.4 34.364 155.534 34.364C154.858 34.364 154.286 34.2687 153.818 34.078C153.367 33.9047 153.003 33.662 152.726 33.35C152.431 33.0207 152.223 32.5873 152.102 32.05C151.98 31.5127 151.92 30.8193 151.92 29.97V23.392C151.92 22.612 151.79 22.04 151.53 21.676C151.287 21.2947 150.828 21.104 150.152 21.104V20.558C150.706 20.61 151.244 20.636 151.764 20.636C152.405 20.636 153.012 20.61 153.584 20.558C154.173 20.4887 154.71 20.3933 155.196 20.272V30.88C155.196 31.348 155.23 31.764 155.3 32.128C155.386 32.492 155.551 32.7867 155.794 33.012C156.036 33.22 156.4 33.324 156.886 33.324C157.423 33.324 157.908 33.168 158.342 32.856C158.775 32.544 159.113 32.1193 159.356 31.582C159.616 31.0447 159.746 30.438 159.746 29.762V23.392C159.746 22.612 159.616 22.04 159.356 21.676C159.113 21.2947 158.654 21.104 157.978 21.104V20.558C158.532 20.61 159.07 20.636 159.59 20.636C160.231 20.636 160.838 20.61 161.41 20.558C161.999 20.4887 162.536 20.3933 163.022 20.272ZM168.837 38.888C167.815 38.888 166.887 38.7927 166.055 38.602C165.223 38.4113 164.565 38.1253 164.079 37.744C163.594 37.38 163.351 36.912 163.351 36.34C163.351 35.7853 163.594 35.2913 164.079 34.858C164.565 34.4247 165.275 34.0953 166.211 33.87L166.393 34.286C166.064 34.4767 165.813 34.7367 165.639 35.066C165.466 35.3953 165.379 35.742 165.379 36.106C165.379 36.8513 165.717 37.4233 166.393 37.822C167.087 38.238 168.005 38.446 169.149 38.446C169.929 38.446 170.649 38.342 171.307 38.134C171.966 37.926 172.495 37.6053 172.893 37.172C173.292 36.7387 173.491 36.2013 173.491 35.56C173.491 35.0227 173.292 34.572 172.893 34.208C172.512 33.844 171.741 33.662 170.579 33.662H168.863C168.222 33.662 167.633 33.5927 167.095 33.454C166.575 33.3153 166.159 33.09 165.847 32.778C165.535 32.466 165.379 32.0327 165.379 31.478C165.379 30.802 165.657 30.1953 166.211 29.658C166.766 29.1033 167.633 28.566 168.811 28.046L169.097 28.28C168.664 28.5053 168.274 28.748 167.927 29.008C167.598 29.268 167.433 29.5973 167.433 29.996C167.433 30.5507 167.815 30.828 168.577 30.828H171.515C172.417 30.828 173.214 30.9407 173.907 31.166C174.618 31.3913 175.181 31.7467 175.597 32.232C176.013 32.7173 176.221 33.3587 176.221 34.156C176.221 34.988 175.953 35.7593 175.415 36.47C174.878 37.198 174.063 37.7787 172.971 38.212C171.897 38.6627 170.519 38.888 168.837 38.888ZM169.071 28.462C168.135 28.462 167.286 28.3233 166.523 28.046C165.778 27.7513 165.189 27.3007 164.755 26.694C164.322 26.07 164.105 25.2813 164.105 24.328C164.105 23.3747 164.322 22.5947 164.755 21.988C165.189 21.3813 165.778 20.9307 166.523 20.636C167.286 20.3413 168.135 20.194 169.071 20.194C170.025 20.194 170.874 20.3413 171.619 20.636C172.365 20.9307 172.954 21.3813 173.387 21.988C173.821 22.5947 174.037 23.3747 174.037 24.328C174.037 25.2813 173.821 26.07 173.387 26.694C172.954 27.3007 172.365 27.7513 171.619 28.046C170.874 28.3233 170.025 28.462 169.071 28.462ZM169.071 27.994C169.591 27.994 169.999 27.734 170.293 27.214C170.605 26.6767 170.761 25.7147 170.761 24.328C170.761 22.9413 170.605 21.988 170.293 21.468C169.999 20.9307 169.591 20.662 169.071 20.662C168.551 20.662 168.135 20.9307 167.823 21.468C167.529 21.988 167.381 22.9413 167.381 24.328C167.381 25.7147 167.529 26.6767 167.823 27.214C168.135 27.734 168.551 27.994 169.071 27.994ZM172.997 22.404L172.503 22.222C172.763 21.5807 173.188 21.0433 173.777 20.61C174.367 20.1593 174.991 19.934 175.649 19.934C176.152 19.934 176.542 20.0727 176.819 20.35C177.114 20.6273 177.261 21.0173 177.261 21.52C177.261 22.04 177.123 22.4213 176.845 22.664C176.568 22.9067 176.265 23.028 175.935 23.028C175.641 23.028 175.372 22.9327 175.129 22.742C174.887 22.534 174.748 22.222 174.713 21.806C174.679 21.3727 174.817 20.8353 175.129 20.194L175.389 20.298C174.713 20.558 174.211 20.844 173.881 21.156C173.552 21.468 173.257 21.884 172.997 22.404ZM182.182 20.194C183.707 20.194 184.903 20.6533 185.77 21.572C186.637 22.4907 187.07 23.9553 187.07 25.966H178.308L178.282 25.472H184.054C184.089 24.6227 184.037 23.8427 183.898 23.132C183.759 22.404 183.534 21.8233 183.222 21.39C182.927 20.9567 182.537 20.74 182.052 20.74C181.393 20.74 180.821 21.13 180.336 21.91C179.851 22.6727 179.547 23.9293 179.426 25.68L179.53 25.836C179.495 26.0613 179.469 26.304 179.452 26.564C179.452 26.824 179.452 27.084 179.452 27.344C179.452 28.54 179.625 29.528 179.972 30.308C180.319 31.088 180.769 31.66 181.324 32.024C181.879 32.388 182.451 32.57 183.04 32.57C183.439 32.57 183.846 32.5093 184.262 32.388C184.678 32.2667 185.085 32.0413 185.484 31.712C185.883 31.3827 186.247 30.9147 186.576 30.308L187.07 30.516C186.879 31.1227 186.559 31.7293 186.108 32.336C185.675 32.9253 185.111 33.4107 184.418 33.792C183.725 34.1733 182.91 34.364 181.974 34.364C180.795 34.364 179.755 34.104 178.854 33.584C177.953 33.064 177.251 32.2927 176.748 31.27C176.245 30.23 175.994 28.9647 175.994 27.474C175.994 25.8967 176.254 24.5707 176.774 23.496C177.311 22.4213 178.048 21.6067 178.984 21.052C179.92 20.48 180.986 20.194 182.182 20.194Z" fill="black"/>
</svg>
